<?xml version="1.0" standalone="no"?>
<!DOCTYPE svg PUBLIC "-//W3C//DTD SVG 20010904//EN"
 "http://www.w3.org/TR/2001/REC-SVG-20010904/DTD/svg10.dtd">
<svg version="1.0" xmlns="http://www.w3.org/2000/svg"
 width="720.000000pt" height="720.000000pt" viewBox="0 0 720.000000 720.000000"
 preserveAspectRatio="xMidYMid meet">

<g transform="translate(0.000000,720.000000) scale(0.100000,-0.100000)"
fill="#000000" stroke="none">
<path d="M4606 5879 c31 -132 102 -282 196 -414 55 -77 212 -245 229 -245 5 0
-16 37 -45 83 -69 106 -87 143 -124 252 -38 112 -62 227 -62 298 0 32 -5 59
-13 65 -7 6 -53 12 -103 14 l-91 3 13 -56z"/>
<path d="M3715 5260 c0 -195 1 -275 2 -178 2 98 2 258 0 356 -1 97 -2 17 -2
-178z"/>
<path d="M5770 4450 l0 -343 -147 6 c-162 7 -315 34 -479 85 -103 33 -343 146
-477 226 -43 25 -83 46 -88 46 -7 0 -10 -339 -9 -937 1 -909 1 -941 -19 -1050
-99 -536 -471 -987 -978 -1187 -320 -127 -700 -141 -1048 -41 -111 32 -306
125 -409 194 -42 28 -76 49 -76 46 0 -9 100 -106 160 -156 142 -118 351 -231
542 -293 162 -52 283 -69 493 -68 197 0 316 18 469 68 106 35 308 131 388 185
315 212 539 518 642 874 67 236 67 228 64 1233 -3 857 -2 902 15 902 9 0 36
-12 60 -27 56 -35 344 -173 432 -206 188 -71 597 -139 669 -111 14 5 16 52 16
419 0 346 -2 414 -14 418 -8 3 -52 11 -98 18 -50 7 -88 18 -95 27 -11 13 -13
-51 -13 -328z"/>
<path d="M3222 3871 c-2 -408 -3 -433 -19 -426 -94 36 -317 31 -438 -9 -118
-40 -180 -80 -275 -175 -132 -132 -194 -269 -207 -456 -6 -99 11 -212 48 -311
40 -107 139 -233 243 -310 l39 -29 -30 55 c-190 342 -35 795 334 979 117 58
292 82 426 58 68 -12 81 -12 93 0 22 22 21 835 -1 853 -8 7 -48 15 -88 17
-124 7 -116 0 -120 101 -1 48 -4 -108 -5 -347z"/>
</g>
</svg>
