<?xml version="1.0" standalone="no"?>
<!DOCTYPE svg PUBLIC "-//W3C//DTD SVG 20010904//EN"
 "http://www.w3.org/TR/2001/REC-SVG-20010904/DTD/svg10.dtd">
<svg version="1.0" xmlns="http://www.w3.org/2000/svg"
 width="550.000000pt" height="550.000000pt" viewBox="0 0 550.000000 550.000000"
 preserveAspectRatio="xMidYMid meet">

<g transform="translate(0.000000,550.000000) scale(0.100000,-0.100000)"
fill="#000000" stroke="none">
<path d="M2501 5490 c-947 -92 -1751 -643 -2172 -1490 -133 -267 -213 -522
-265 -837 -24 -151 -30 -553 -10 -726 112 -967 705 -1801 1556 -2188 684 -312
1460 -330 2160 -52 352 140 637 329 921 613 441 441 686 933 786 1580 22 144
24 546 4 690 -61 439 -203 828 -429 1170 -114 173 -187 264 -331 413 -436 450
-970 720 -1607 812 -130 19 -481 27 -613 15z m830 -1290 c34 -301 267 -560
554 -615 42 -8 90 -15 106 -15 l29 0 0 -250 0 -250 -52 0 c-150 0 -395 71
-539 156 -50 30 -93 54 -95 54 -2 0 -5 -258 -6 -572 -4 -655 -2 -641 -97 -833
-138 -281 -412 -470 -727 -505 -384 -41 -737 158 -919 519 -86 172 -112 412
-66 605 24 100 89 244 145 321 128 177 316 304 536 362 66 17 311 26 325 11
11 -11 19 -494 9 -501 -5 -3 -34 -1 -64 5 -117 21 -265 -28 -356 -119 -79 -79
-134 -231 -119 -327 25 -160 110 -276 255 -348 38 -19 61 -23 155 -23 92 0
119 4 168 23 71 29 163 112 200 181 57 104 57 97 57 1184 l0 997 248 -2 247
-3 6 -55z"/>
</g>
</svg>
